# xmcd CD database file
# Generated: Sat Apr 27 23:55:15 2002 by KSCD
# 
# Track frame offsets:
#       150
#       11798
#       22553
#       37443
#       48315
#       59970
#       69353
#       83565
#       91765
#       101570
#       114438
#       128040
#       138490
#       149695
#       158305
#       171265
#       182085
#       192103
#       204828
#       216418
#       228645
#       239335
#
# Disc length: 3378 seconds
#
# Revision: 2
# Processed by: cddbd v1.4PL0 Copyright (c) Steve Scherf et al.
# Submitted via: Kscd 1.3.2
#
DISCID=330d3016
DTITLE=Os Cariocas - O Melhor de Os Cariocas
DYEAR=1900
DGENRE=
TTITLE0=Ela é carioca
TTITLE1=Tem dó
TTITLE2=A minha namorada
TTITLE3=Amanhecendo
TTITLE4=Vivo sonhando
TTITLE5=Samba de verão
TTITLE6=Só tinha de ser com você
TTITLE7=Devagar com a louça
TTITLE8=Só quis você
TTITLE9=Samba da pergunta
TTITLE10=Garota de Ipanema
TTITLE11=Rio
TTITLE12=Pra quê chorar
TTITLE13=Só danço samba
TTITLE14=Também quem mandou
TTITLE15=Tim-tim por tim-tim
TTITLE16=Telefone
TTITLE17=Gente
TTITLE18=Samba do avião
TTITLE19=Insensatez
TTITLE20=O samba da minha terra
TTITLE21=Preciso aprender a ser só
EXTD=
EXTT0=
EXTT1=
EXTT2=
EXTT3=
EXTT4=
EXTT5=
EXTT6=
EXTT7=
EXTT8=
EXTT9=
EXTT10=
EXTT11=
EXTT12=
EXTT13=
EXTT14=
EXTT15=
EXTT16=
EXTT17=
EXTT18=
EXTT19=
EXTT20=
EXTT21=
PLAYORDER=
